<mxfile modified="2022-01-09T21:54:36.584Z" host="app.diagrams.net" agent="5.0 (Macintosh; Intel Mac OS X 10_15_7) AppleWebKit/537.36 (KHTML, like Gecko) Chrome/94.0.4606.71 Safari/537.36" etag="ON93QUfFXyqpKOQ5uq6T" version="16.2.4" type="github">
  <diagram id="f106602c-feb2-e66a-4537-3a34d633f6aa" name="Page-1">
    <mxGraphModel dx="2210" dy="699" grid="1" gridSize="10" guides="1" tooltips="1" connect="1" arrows="1" fold="1" page="1" pageScale="1" pageWidth="1169" pageHeight="827" background="none" math="0" shadow="0">
      <root>
        <mxCell id="0" />
        <mxCell id="1" parent="0" />
        <mxCell id="14" value="&lt;b&gt;Google &lt;/b&gt;Cloud Platform" style="fillColor=#F6F6F6;strokeColor=none;shadow=0;gradientColor=none;fontSize=14;align=left;spacing=10;fontColor=#717171;9E9E9E;verticalAlign=top;spacingTop=-4;fontStyle=0;spacingLeft=40;html=1;" parent="1" vertex="1">
          <mxGeometry x="479" y="120" width="410" height="407.5" as="geometry" />
        </mxCell>
        <mxCell id="15" value="" style="shape=mxgraph.gcp2.google_cloud_platform;fillColor=#F6F6F6;strokeColor=none;shadow=0;gradientColor=none;" parent="14" vertex="1">
          <mxGeometry width="23" height="20" relative="1" as="geometry">
            <mxPoint x="20" y="10" as="offset" />
          </mxGeometry>
        </mxCell>
        <mxCell id="IWucTXHmivIzbR-pM-Q6-523" value="                                          &#xa;&#xa;&#xa;&#xa;&#xa;" style="strokeColor=#dddddd;shadow=1;strokeWidth=1;rounded=1;absoluteArcSize=1;arcSize=2;" vertex="1" parent="14">
          <mxGeometry x="210" y="130" width="160" height="183.57" as="geometry" />
        </mxCell>
        <mxCell id="IWucTXHmivIzbR-pM-Q6-524" value="&lt;font color=&quot;#000000&quot;&gt;k3s-worker&lt;/font&gt;&lt;br&gt;Compute Engine" style="sketch=0;dashed=0;connectable=0;html=1;fillColor=#5184F3;strokeColor=none;shape=mxgraph.gcp2.hexIcon;prIcon=compute_engine;part=1;labelPosition=right;verticalLabelPosition=middle;align=left;verticalAlign=middle;spacingLeft=5;fontColor=#999999;fontSize=12;" vertex="1" parent="IWucTXHmivIzbR-pM-Q6-523">
          <mxGeometry y="0.5" width="44" height="39" relative="1" as="geometry">
            <mxPoint x="5" y="-19.5" as="offset" />
          </mxGeometry>
        </mxCell>
        <mxCell id="IWucTXHmivIzbR-pM-Q6-541" value="flask-app pod" style="ellipse;whiteSpace=wrap;html=1;" vertex="1" parent="IWucTXHmivIzbR-pM-Q6-523">
          <mxGeometry x="10" y="120" width="70" height="44" as="geometry" />
        </mxCell>
        <mxCell id="IWucTXHmivIzbR-pM-Q6-542" value="mysql pod" style="ellipse;whiteSpace=wrap;html=1;" vertex="1" parent="IWucTXHmivIzbR-pM-Q6-523">
          <mxGeometry x="80" y="120" width="70" height="44" as="geometry" />
        </mxCell>
        <mxCell id="IWucTXHmivIzbR-pM-Q6-526" value="" style="strokeColor=#dddddd;shadow=1;strokeWidth=1;rounded=1;absoluteArcSize=1;arcSize=2;" vertex="1" parent="14">
          <mxGeometry x="20" y="159.02439024390245" width="160" height="74.54268292682927" as="geometry" />
        </mxCell>
        <mxCell id="IWucTXHmivIzbR-pM-Q6-527" value="&lt;font color=&quot;#000000&quot;&gt;k3s-master&lt;/font&gt;&lt;br&gt;Compute Engine" style="sketch=0;dashed=0;connectable=0;html=1;fillColor=#5184F3;strokeColor=none;shape=mxgraph.gcp2.hexIcon;prIcon=compute_engine;part=1;labelPosition=right;verticalLabelPosition=middle;align=left;verticalAlign=middle;spacingLeft=5;fontColor=#999999;fontSize=12;" vertex="1" parent="IWucTXHmivIzbR-pM-Q6-526">
          <mxGeometry y="0.5" width="44" height="39" relative="1" as="geometry">
            <mxPoint x="5" y="-19.5" as="offset" />
          </mxGeometry>
        </mxCell>
        <mxCell id="2" value="Architecture: Bootstraping K3S consisting of one master and one worker node on Google Cloud&amp;nbsp; via&amp;nbsp; Terrragrunt" style="fillColor=#4DA1F5;strokeColor=none;shadow=1;gradientColor=none;fontSize=14;align=left;spacingLeft=50;fontColor=#ffffff;html=1;" parent="1" vertex="1">
          <mxGeometry x="80" y="40" width="831" height="40" as="geometry" />
        </mxCell>
        <mxCell id="IWucTXHmivIzbR-pM-Q6-535" style="edgeStyle=orthogonalEdgeStyle;rounded=0;orthogonalLoop=1;jettySize=auto;html=1;" edge="1" parent="1" target="14">
          <mxGeometry relative="1" as="geometry">
            <mxPoint x="299.5" y="320" as="sourcePoint" />
            <Array as="points">
              <mxPoint x="300" y="290" />
            </Array>
          </mxGeometry>
        </mxCell>
        <mxCell id="516" value="or" style="text;html=1;resizable=0;points=[];autosize=1;align=left;verticalAlign=top;spacingTop=-4;fontSize=10;fontColor=#999999;" parent="1" vertex="1">
          <mxGeometry x="869" y="337" width="20" height="10" as="geometry" />
        </mxCell>
        <mxCell id="IWucTXHmivIzbR-pM-Q6-516" value="&lt;h3&gt;Bootstraping k3s by Terragrunt&lt;/h3&gt;&lt;h3&gt;&lt;b&gt;as one master node&amp;nbsp; and one worker node&amp;nbsp;&lt;/b&gt;&lt;/h3&gt;" style="text;html=1;align=center;verticalAlign=middle;resizable=0;points=[];autosize=1;strokeColor=none;fillColor=none;" vertex="1" parent="1">
          <mxGeometry x="60" y="360" width="300" height="80" as="geometry" />
        </mxCell>
        <mxCell id="IWucTXHmivIzbR-pM-Q6-543" value="Github Action CI/CD" style="whiteSpace=wrap;html=1;" vertex="1" parent="1">
          <mxGeometry x="230" y="260" width="100" height="60" as="geometry" />
        </mxCell>
        <mxCell id="IWucTXHmivIzbR-pM-Q6-545" value="" style="edgeStyle=orthogonalEdgeStyle;rounded=0;orthogonalLoop=1;jettySize=auto;html=1;" edge="1" parent="1" source="IWucTXHmivIzbR-pM-Q6-544" target="IWucTXHmivIzbR-pM-Q6-543">
          <mxGeometry relative="1" as="geometry" />
        </mxCell>
        <mxCell id="IWucTXHmivIzbR-pM-Q6-544" value="Source Code and Terragrunt file on&lt;br&gt;Github" style="whiteSpace=wrap;html=1;" vertex="1" parent="1">
          <mxGeometry x="10" y="260" width="120" height="60" as="geometry" />
        </mxCell>
        <mxCell id="IWucTXHmivIzbR-pM-Q6-555" value="&lt;h3&gt;&lt;b&gt;After k3s cluster is ready, build and helm-chart deployment is triggered&lt;/b&gt;&lt;/h3&gt;" style="text;html=1;align=center;verticalAlign=middle;resizable=0;points=[];autosize=1;strokeColor=none;fillColor=none;" vertex="1" parent="1">
          <mxGeometry x="-10" y="440" width="490" height="50" as="geometry" />
        </mxCell>
      </root>
    </mxGraphModel>
  </diagram>
</mxfile>
